<mxfile host="app.diagrams.net" modified="2024-07-19T03:47:05.272Z" agent="Mozilla/5.0 (Macintosh; Intel Mac OS X 10_15_7) AppleWebKit/537.36 (KHTML, like Gecko) Chrome/126.0.0.0 Safari/537.36" version="24.7.1" etag="_K1geIrE2xDip8CJS1zY" type="github">
  <diagram name="Trang-1" id="WuFTNNFQpdlwYEyJQ8HX">
    <mxGraphModel>
      <root>
        <mxCell id="0" />
        <mxCell id="1" parent="0" />
      </root>
    </mxGraphModel>
  </diagram>
</mxfile>
